<svg width="103" height="21" viewBox="0 0 103 21" fill="none" xmlns="http://www.w3.org/2000/svg">
<g clip-path="url(#clip0_223_30)">
<path d="M43.3274 4.4259H46.565C47.5872 4.4259 48.3594 4.95477 48.8813 6.01256C49.0063 6.32557 49.069 6.69526 49.069 7.12159V9.04016C47.9705 9.55286 47.4051 9.8092 47.3725 9.8092V6.87064C47.3725 6.51985 47.1551 6.26619 46.72 6.10969C46.6384 6.08811 46.5569 6.07731 46.4753 6.07731H43.5148C42.9602 6.07731 42.6504 6.39302 42.5853 7.02446V12.1325C41.987 12.3376 41.4325 12.764 40.9214 13.4116V6.9354C40.9214 5.87225 41.4759 5.08702 42.5853 4.5797C42.8517 4.47716 43.0989 4.4259 43.3274 4.4259ZM49.069 9.4449V11.242L43.89 13.7192C43.0365 14.097 42.6095 14.4046 42.6095 14.642C42.5933 14.7446 42.5853 14.8417 42.5853 14.9334V16.0263H40.9214V14.7635C40.9214 13.6625 41.6635 12.826 43.1479 12.254L49.069 9.4449ZM49.069 11.6711V16.0263H47.3725V12.4968L49.069 11.6711Z" fill="#FF1D92"/>
<path d="M51.4998 3.03953C52.2685 3.03953 52.8917 2.42097 52.8917 1.65795C52.8917 0.894921 52.2685 0.276367 51.4998 0.276367C50.7311 0.276367 50.1079 0.894921 50.1079 1.65795C50.1079 2.42097 50.7311 3.03953 51.4998 3.03953Z" fill="#FF1D92" stroke="#FF1D92" stroke-width="2"/>
<path d="M50.665 4.42102H50.9434C51.712 4.42102 52.3353 5.03958 52.3353 5.8026V14.6447H50.665V4.42102Z" fill="#FF1D92"/>
<path d="M13.513 15.4681C12.1489 15.4681 11.085 15.08 10.3211 14.3037C9.55723 13.5275 9.17529 12.4804 9.17529 11.1626C9.17529 10.0072 9.55723 9.05945 10.3211 8.31929C11.1031 7.57912 12.1035 7.20905 13.322 7.20905C14.5042 7.20905 15.4499 7.55204 16.1593 8.23805C16.8686 8.90599 17.2232 9.73643 17.2232 10.7293C17.2232 11.1265 17.1141 11.4243 16.8958 11.6229C16.6958 11.8215 16.4321 11.9208 16.1047 11.9208H11.3578C11.1759 11.9208 11.1122 12.0201 11.1668 12.2187C11.3123 12.7241 11.6033 13.1213 12.0398 13.4101C12.4945 13.6809 13.0037 13.8163 13.5675 13.8163C13.9859 13.8163 14.386 13.7622 14.7679 13.6538C15.168 13.5455 15.5136 13.383 15.8046 13.1664C15.8955 13.0942 16.0137 13.0581 16.1593 13.0581C16.3593 13.0581 16.5412 13.1484 16.7049 13.3289C16.8686 13.4914 16.9504 13.69 16.9504 13.9246C16.9504 14.0329 16.9322 14.1413 16.8958 14.2496C16.8595 14.3579 16.7776 14.4662 16.6503 14.5745C16.1774 14.9175 15.6682 15.1522 15.1226 15.2786C14.5951 15.4049 14.0586 15.4681 13.513 15.4681ZM15.0953 10.5127C15.2044 10.5127 15.259 10.4585 15.259 10.3502C15.259 9.93499 15.068 9.57395 14.6861 9.26705C14.3223 8.96014 13.8676 8.80671 13.322 8.80671C12.8491 8.80671 12.3945 8.93307 11.958 9.18581C11.5396 9.43856 11.285 9.77251 11.1941 10.1877C11.1941 10.1877 11.1941 10.1968 11.1941 10.2148C11.1759 10.287 11.1668 10.3502 11.1668 10.4044C11.185 10.4585 11.2668 10.4856 11.4123 10.4856L15.0953 10.5127ZM19.1318 15.4681C18.8954 15.4681 18.6771 15.3779 18.4771 15.1973C18.277 14.9988 18.177 14.7821 18.177 14.5474C18.177 14.3308 18.2588 14.1413 18.4225 13.9788L20.7687 11.5417C20.8596 11.4153 20.9051 11.316 20.9051 11.2438C20.9051 11.1355 20.8596 11.0362 20.7687 10.9459L18.5589 8.67131C18.4316 8.52688 18.368 8.3554 18.368 8.15681C18.368 7.90407 18.4771 7.68743 18.6953 7.50692C18.9136 7.30833 19.1409 7.20905 19.3774 7.20905C19.4865 7.20905 19.5956 7.23613 19.7047 7.29029C19.832 7.3264 19.9412 7.40764 20.0321 7.534L21.8327 9.67323C21.96 9.79959 22.06 9.86279 22.1328 9.86279C22.2419 9.86279 22.3419 9.79959 22.4328 9.67323L24.2334 7.534C24.3243 7.40764 24.4244 7.3264 24.5335 7.29029C24.6608 7.23613 24.779 7.20905 24.8881 7.20905C25.1427 7.20905 25.3701 7.30833 25.5702 7.50692C25.7702 7.70551 25.8703 7.93115 25.8703 8.18389C25.8703 8.38248 25.8066 8.55396 25.6793 8.69839L23.5241 10.9459C23.4513 11.0181 23.415 11.1175 23.415 11.2438C23.415 11.3521 23.4513 11.4514 23.5241 11.5417L25.843 13.9788C26.0067 14.1413 26.0885 14.3308 26.0885 14.5474C26.0885 14.7821 25.9885 14.9988 25.7884 15.1973C25.5883 15.3779 25.3701 15.4681 25.1337 15.4681C24.8972 15.4681 24.6881 15.3779 24.5062 15.1973L22.4328 12.7873C22.3601 12.661 22.2601 12.5978 22.1328 12.5978C22.0418 12.5978 21.9418 12.661 21.8327 12.7873L19.7593 15.1973C19.5774 15.3779 19.3683 15.4681 19.1318 15.4681ZM30.6803 15.4681C29.971 15.4681 29.3889 15.2515 28.9343 14.8182C28.4794 14.385 28.2523 13.7351 28.2523 12.8685V9.42952C28.2523 9.24901 28.1613 9.15873 27.9795 9.15873H27.4884C27.2519 9.15873 27.0519 9.08653 26.8882 8.9421C26.7245 8.77963 26.6426 8.58104 26.6426 8.34636C26.6426 8.09362 26.7245 7.88602 26.8882 7.72355C27.0519 7.56108 27.2519 7.47984 27.4884 7.47984H27.9795C28.1613 7.47984 28.2523 7.38957 28.2523 7.20905V4.93442C28.2523 4.68167 28.3341 4.48311 28.4978 4.33868C28.6796 4.17621 28.8978 4.09497 29.1526 4.09497C29.4254 4.09497 29.6436 4.17621 29.8073 4.33868C29.9891 4.48311 30.0801 4.68167 30.0801 4.93442V7.20905C30.0801 7.38957 30.1709 7.47984 30.3529 7.47984H31.8261C32.0444 7.47984 32.2353 7.56108 32.399 7.72355C32.5627 7.88602 32.6445 8.09362 32.6445 8.34636C32.6445 8.58104 32.5627 8.77963 32.399 8.9421C32.2534 9.08653 32.0533 9.15873 31.7988 9.15873H30.3529C30.1709 9.15873 30.0801 9.24901 30.0801 9.42952V12.6248C30.0801 13.383 30.3891 13.7622 31.0077 13.7622C31.1895 13.7622 31.3804 13.7351 31.5806 13.6809C31.7805 13.6268 31.9169 13.5997 31.9898 13.5997C32.2442 13.5997 32.4352 13.6809 32.5627 13.8434C32.708 14.0059 32.7809 14.1954 32.7809 14.412C32.7809 14.5745 32.7353 14.737 32.6445 14.8995C32.5535 15.0439 32.4079 15.1522 32.208 15.2244C32.0079 15.2966 31.7532 15.3508 31.4442 15.3869C31.153 15.441 30.8986 15.4681 30.6803 15.4681ZM36.0065 11.1897V14.6287C36.0065 14.8995 35.9063 15.1071 35.7064 15.2515C35.5244 15.3959 35.3153 15.4681 35.079 15.4681C34.8423 15.4681 34.6241 15.3959 34.4242 15.2515C34.2422 15.1071 34.1514 14.8995 34.1514 14.6287V8.26513C34.1514 7.95822 34.2422 7.73259 34.4242 7.58815C34.6241 7.42568 34.8423 7.34444 35.079 7.34444C35.3153 7.34444 35.5244 7.42568 35.7064 7.58815C35.9063 7.73259 36.0065 7.95822 36.0065 8.26513V8.37344C36.261 8.03045 36.5883 7.75063 36.9886 7.534C37.4068 7.31737 37.8433 7.20905 38.2981 7.20905C38.5164 7.20905 38.7346 7.23613 38.9529 7.29029C39.1711 7.34444 39.3348 7.45276 39.4439 7.61523C39.5531 7.77771 39.6076 7.95822 39.6076 8.15681C39.6076 8.39149 39.5258 8.60812 39.3621 8.80671C39.2165 8.98722 38.9983 9.0775 38.7073 9.0775C38.5798 9.0775 38.4434 9.05945 38.2981 9.02334C38.1706 8.98722 38.0069 8.96918 37.8071 8.96918C37.2795 8.96918 36.843 9.16777 36.4976 9.56492C36.1702 9.96207 36.0065 10.5036 36.0065 11.1897Z" fill="#1F1F1F"/>
<path d="M57.5351 15.4681C56.7531 15.4681 56.053 15.2876 55.4345 14.9265C54.8162 14.5655 54.3343 14.069 53.9886 13.4372C53.6431 12.7873 53.4702 12.0652 53.4702 11.2709C53.4702 10.4946 53.6431 9.79956 53.9886 9.18578C54.3343 8.572 54.8162 8.09359 55.4345 7.7506C56.053 7.38954 56.7531 7.20902 57.5351 7.20902C58.0445 7.20902 58.4991 7.29026 58.8991 7.45273C59.2995 7.61521 59.6449 7.84087 59.9358 8.12971V4.33865C59.9358 4.03175 60.0269 3.80611 60.2086 3.66168C60.4088 3.49921 60.627 3.41797 60.8634 3.41797C61.1 3.41797 61.3091 3.49921 61.4909 3.66168C61.691 3.80611 61.7909 4.03175 61.7909 4.33865V14.6287C61.7909 14.8994 61.691 15.107 61.4909 15.2515C61.3091 15.3959 61.1 15.4681 60.8634 15.4681C60.627 15.4681 60.4088 15.3959 60.2086 15.2515C60.0269 15.107 59.9358 14.8994 59.9358 14.6287V14.5203C59.6449 14.8092 59.2995 15.0348 58.8991 15.1973C58.4991 15.3778 58.0445 15.4681 57.5351 15.4681ZM57.6988 13.7892C58.39 13.7892 58.9356 13.5635 59.3356 13.1122C59.736 12.6429 59.9358 12.0291 59.9358 11.2709C59.9358 10.5488 59.736 9.97107 59.3356 9.53781C58.9356 9.10455 58.39 8.88792 57.6988 8.88792C56.9895 8.88792 56.4166 9.10455 55.9801 9.53781C55.5436 9.97107 55.3253 10.5488 55.3253 11.2709C55.3253 12.0291 55.5436 12.6429 55.9801 13.1122C56.4166 13.5635 56.9895 13.7892 57.6988 13.7892ZM67.366 15.4681C66.5841 15.4681 65.8837 15.2876 65.2654 14.9265C64.6471 14.5655 64.165 14.069 63.8195 13.4372C63.474 12.7873 63.3011 12.0652 63.3011 11.2709C63.3011 10.4946 63.474 9.79956 63.8195 9.18578C64.165 8.572 64.6471 8.09359 65.2654 7.7506C65.8837 7.38954 66.5841 7.20902 67.366 7.20902C67.8752 7.20902 68.3301 7.29929 68.7301 7.47981C69.1301 7.64228 69.4759 7.85892 69.7668 8.12971C69.8032 7.87696 69.9124 7.68741 70.0941 7.56105C70.2759 7.41662 70.4761 7.34442 70.6943 7.34442C70.9307 7.34442 71.14 7.42565 71.3218 7.58813C71.5219 7.73256 71.6219 7.9582 71.6219 8.2651V14.6287C71.6219 14.8994 71.5219 15.107 71.3218 15.2515C71.14 15.3959 70.9307 15.4681 70.6943 15.4681C70.458 15.4681 70.2397 15.3959 70.0396 15.2515C69.8578 15.107 69.7668 14.8994 69.7668 14.6287V14.5203C69.4759 14.8092 69.1301 15.0348 68.7301 15.1973C68.3301 15.3778 67.8752 15.4681 67.366 15.4681ZM67.5297 13.7892C68.2209 13.7892 68.7665 13.5635 69.1666 13.1122C69.5666 12.6429 69.7668 12.0291 69.7668 11.2709C69.7668 10.5488 69.5666 9.97107 69.1666 9.53781C68.7665 9.10455 68.2209 8.88792 67.5297 8.88792C66.8204 8.88792 66.2475 9.10455 65.811 9.53781C65.3745 9.97107 65.1563 10.5488 65.1563 11.2709C65.1563 12.0291 65.3745 12.6429 65.811 13.1122C66.2475 13.5635 66.8204 13.7892 67.5297 13.7892ZM77.1967 15.4681C76.4147 15.4681 75.7146 15.2876 75.096 14.9265C74.4778 14.5655 73.9959 14.069 73.6501 13.4372C73.3047 12.7873 73.1318 12.0652 73.1318 11.2709C73.1318 10.4946 73.3047 9.79956 73.6501 9.18578C73.9959 8.572 74.4778 8.09359 75.096 7.7506C75.7146 7.38954 76.4147 7.20902 77.1967 7.20902C77.7061 7.20902 78.1607 7.29026 78.5607 7.45273C78.9611 7.61521 79.3065 7.84087 79.5974 8.12971V4.33865C79.5974 4.03175 79.6884 3.80611 79.8702 3.66168C80.0704 3.49921 80.2886 3.41797 80.525 3.41797C80.7616 3.41797 80.9707 3.49921 81.1524 3.66168C81.3526 3.80611 81.4525 4.03175 81.4525 4.33865V14.6287C81.4525 14.8994 81.3526 15.107 81.1524 15.2515C80.9707 15.3959 80.7616 15.4681 80.525 15.4681C80.2886 15.4681 80.0704 15.3959 79.8702 15.2515C79.6884 15.107 79.5974 14.8994 79.5974 14.6287V14.5203C79.3065 14.8092 78.9611 15.0348 78.5607 15.1973C78.1607 15.3778 77.7061 15.4681 77.1967 15.4681ZM77.3604 13.7892C78.0516 13.7892 78.5972 13.5635 78.9972 13.1122C79.3975 12.6429 79.5974 12.0291 79.5974 11.2709C79.5974 10.5488 79.3975 9.97107 78.9972 9.53781C78.5972 9.10455 78.0516 8.88792 77.3604 8.88792C76.6511 8.88792 76.0782 9.10455 75.6417 9.53781C75.2052 9.97107 74.9869 10.5488 74.9869 11.2709C74.9869 12.0291 75.2052 12.6429 75.6417 13.1122C76.0782 13.5635 76.6511 13.7892 77.3604 13.7892ZM87.1913 15.4681C86.391 15.4681 85.6636 15.2876 85.0088 14.9265C84.3722 14.5655 83.8719 14.069 83.5084 13.4372C83.1445 12.7873 82.9627 12.0652 82.9627 11.2709C82.9627 10.4946 83.1445 9.79956 83.5084 9.18578C83.8719 8.572 84.3722 8.09359 85.0088 7.7506C85.6636 7.38954 86.391 7.20902 87.1913 7.20902C87.9914 7.20902 88.7099 7.38954 89.3465 7.7506C89.9829 8.09359 90.4831 8.572 90.847 9.18578C91.2289 9.79956 91.4199 10.4946 91.4199 11.2709C91.4199 12.0652 91.2289 12.7873 90.847 13.4372C90.4831 14.069 89.9829 14.5655 89.3465 14.9265C88.7099 15.2876 87.9914 15.4681 87.1913 15.4681ZM87.1913 13.7892C87.9006 13.7892 88.4735 13.5635 88.91 13.1122C89.3465 12.6429 89.5648 12.0291 89.5648 11.2709C89.5648 10.5488 89.3465 9.97107 88.91 9.53781C88.4735 9.10455 87.9006 8.88792 87.1913 8.88792C86.4636 8.88792 85.8818 9.10455 85.4453 9.53781C85.0269 9.97107 84.8179 10.5488 84.8179 11.2709C84.8179 12.0291 85.0269 12.6429 85.4453 13.1122C85.8818 13.5635 86.4636 13.7892 87.1913 13.7892ZM95.8831 15.4681C95.3559 15.4681 94.8192 15.3959 94.2735 15.2515C93.7279 15.1251 93.246 14.9175 92.8276 14.6287C92.6094 14.4301 92.5003 14.2134 92.5003 13.9788C92.5003 13.7441 92.5913 13.5365 92.7731 13.3559C92.9732 13.1754 93.1915 13.0852 93.4278 13.0852C93.5553 13.0852 93.6825 13.1213 93.8097 13.1935C94.1371 13.3921 94.5102 13.5545 94.9283 13.6809C95.3648 13.7892 95.774 13.8434 96.1559 13.8434C96.5198 13.8434 96.829 13.7802 97.0835 13.6538C97.3563 13.5275 97.4927 13.3198 97.4927 13.031C97.4927 12.7422 97.3655 12.5255 97.1108 12.3811C96.8563 12.2367 96.4198 12.1284 95.8013 12.0562C95.5468 12.02 95.2375 11.9749 94.8737 11.9208C94.5282 11.8666 94.1828 11.7673 93.837 11.6229C93.4916 11.4785 93.2007 11.2618 92.964 10.973C92.7277 10.6842 92.6094 10.296 92.6094 9.8086C92.6094 9.01428 92.9006 8.38245 93.4824 7.91307C94.0826 7.4437 94.8829 7.20902 95.8831 7.20902C96.4652 7.20902 97.0108 7.28122 97.52 7.42565C98.0475 7.57008 98.4386 7.7506 98.6931 7.96723C98.8932 8.12971 98.9932 8.31926 98.9932 8.53589C98.9932 8.77056 98.9113 8.97819 98.7476 9.15871C98.5839 9.33922 98.3841 9.42949 98.1474 9.42949C98.0202 9.42949 97.9019 9.40242 97.7928 9.34826C97.5019 9.18578 97.1745 9.06843 96.8107 8.99623C96.4652 8.90596 96.1286 8.86084 95.8013 8.86084C95.4193 8.86084 95.092 8.92403 94.8192 9.05039C94.5647 9.15871 94.4372 9.33922 94.4372 9.59197C94.4372 9.77249 94.5101 9.93496 94.6555 10.0794C94.8191 10.2057 95.2284 10.3141 95.8831 10.4043C96.1924 10.4405 96.5379 10.4946 96.9198 10.5668C97.3201 10.639 97.702 10.7564 98.0656 10.9188C98.4294 11.0633 98.7295 11.2979 98.9659 11.6229C99.2025 11.9478 99.3205 12.3901 99.3205 12.9498C99.3205 13.5275 99.1568 14.0058 98.8295 14.3849C98.5021 14.746 98.0748 15.0168 97.5473 15.1973C97.0381 15.3778 96.4833 15.4681 95.8831 15.4681Z" fill="#1F1F1F"/>
<path d="M2.23688 13.421C3.24171 13.421 4.05628 12.6125 4.05628 11.6151C4.05628 10.6177 3.24171 9.8092 2.23688 9.8092C1.23205 9.8092 0.41748 10.6177 0.41748 11.6151C0.41748 12.6125 1.23205 13.421 2.23688 13.421Z" fill="#FF1D92" stroke="#FF1D92" stroke-width="3"/>
<path d="M3.34033 13.1249L7.938 18.4984C8.99584 19.7347 10.5475 20.4473 12.1816 20.4473H20.9206H96.8056C99.1966 20.4473 101.321 18.9321 102.083 16.6827L102.153 16.4767C102.345 15.909 102.443 15.314 102.443 14.715V8.16552C102.443 7.65698 102.372 7.15088 102.233 6.66153L101.953 5.68017C101.275 3.30062 99.0872 1.65784 96.5957 1.65784H54.4564H53.0309" stroke="#FF1D92" stroke-width="3"/>
<path d="M42.5917 15.4736H40.9214V19.3421H42.5917V15.4736Z" fill="#FF1D92"/>
</g>
<defs>
<clipPath id="clip0_223_30">
<rect width="103" height="21" fill="white"/>
</clipPath>
</defs>
</svg>
